<?xml version="1.0" standalone="no"?>
<!DOCTYPE svg PUBLIC "-//W3C//DTD SVG 20010904//EN"
 "http://www.w3.org/TR/2001/REC-SVG-20010904/DTD/svg10.dtd">
<svg version="1.0" xmlns="http://www.w3.org/2000/svg"
 width="5000.000000pt" height="4000.000000pt" viewBox="0 0 5000.000000 4000.000000"
 preserveAspectRatio="xMidYMid meet">

<g transform="translate(0.000000,4000.000000) scale(0.100000,-0.100000)"
fill="#000000" stroke="none">
<path d="M24810 29063 c-102 -197 -229 -443 -283 -548 -54 -104 -131 -253
-172 -330 -40 -77 -260 -502 -490 -945 -229 -443 -448 -863 -485 -935 -74
-142 -1181 -2276 -1947 -3755 -267 -514 -516 -993 -553 -1065 -93 -178 -570
-1098 -835 -1610 -120 -231 -246 -474 -280 -540 -35 -66 -187 -361 -340 -655
-344 -664 -411 -794 -490 -945 -34 -66 -96 -185 -138 -265 -41 -80 -196 -379
-345 -665 -148 -286 -680 -1312 -1182 -2280 -502 -968 -940 -1814 -975 -1880
-70 -135 -116 -224 -410 -790 -114 -220 -246 -474 -293 -565 -46 -91 -104
-201 -127 -245 -23 -44 -88 -169 -144 -277 l-103 -198 1807 0 1807 0 111 54
c62 29 294 142 517 251 223 109 486 237 585 285 99 48 437 212 750 365 314
153 656 319 760 370 105 51 613 298 1130 550 517 252 1026 499 1130 550 105
51 447 217 760 370 874 426 967 471 1160 565 328 159 1206 587 1619 788 132
64 212 108 200 110 -12 2 -205 -13 -430 -32 -225 -20 -751 -65 -1169 -101
-418 -36 -1122 -97 -1565 -135 -3048 -262 -3632 -312 -3636 -307 -4 4 494 973
911 1772 34 66 192 370 350 675 158 305 378 728 488 940 109 212 232 448 272
525 99 191 443 854 697 1345 116 223 241 464 278 535 37 72 132 254 210 405
78 151 173 334 210 405 37 72 126 243 197 380 72 138 172 331 223 430 52 99
164 316 250 483 113 217 160 299 167 290 5 -7 28 -49 50 -93 41 -80 516 -998
799 -1542 162 -312 197 -378 274 -528 45 -88 111 -214 145 -280 34 -66 97
-187 140 -270 43 -82 106 -204 140 -270 245 -472 316 -608 410 -790 48 -93
111 -215 140 -270 29 -55 99 -190 155 -300 56 -110 117 -227 135 -260 18 -33
83 -159 145 -280 62 -121 125 -242 140 -270 15 -27 65 -122 110 -210 46 -88
109 -209 140 -270 32 -60 124 -238 205 -395 253 -490 306 -592 365 -705 32
-60 92 -177 135 -260 175 -339 230 -445 285 -550 60 -115 265 -509 402 -775
45 -85 106 -204 138 -265 32 -60 97 -186 145 -280 48 -93 147 -285 220 -425
204 -393 657 -1266 752 -1450 47 -91 105 -201 128 -245 23 -44 135 -261 250
-482 l209 -403 1809 0 1809 0 -103 198 c-56 108 -135 262 -177 342 -41 80 -98
190 -127 245 -29 55 -94 181 -145 280 -51 99 -146 281 -210 405 -64 124 -153
295 -197 380 -45 85 -170 326 -278 535 -108 209 -236 454 -282 545 -47 91
-114 219 -148 285 -34 66 -129 248 -210 405 -81 157 -171 330 -200 385 -29 55
-90 172 -135 260 -46 88 -106 205 -135 260 -48 91 -219 422 -637 1230 -83 160
-174 335 -203 390 -29 55 -87 168 -130 250 -43 83 -104 200 -135 260 -60 116
-293 565 -437 845 -47 91 -105 201 -128 245 -23 44 -91 175 -150 290 -59 116
-124 242 -145 280 -21 39 -75 142 -120 230 -45 88 -108 210 -140 270 -32 61
-124 238 -205 395 -81 157 -178 345 -216 418 -38 72 -101 194 -140 270 -39 75
-98 187 -129 247 -32 61 -221 425 -420 810 -199 385 -388 750 -420 810 -31 61
-92 178 -135 260 -43 83 -106 204 -140 270 -35 66 -131 253 -215 415 -84 162
-176 340 -205 395 -29 55 -90 172 -135 260 -45 88 -111 214 -145 280 -154 295
-198 380 -280 540 -48 94 -111 215 -140 270 -57 108 -151 290 -404 778 -39 75
-102 197 -140 270 -37 72 -102 197 -144 277 -372 718 -414 800 -537 1035 -32
61 -99 191 -150 290 -51 99 -109 212 -130 250 -21 39 -88 169 -150 290 -62
121 -130 252 -150 290 -21 39 -84 160 -140 270 -57 110 -141 272 -187 360 -46
88 -98 188 -116 222 -17 35 -34 63 -37 63 -3 0 -88 -161 -190 -357z"/>
</g>
</svg>
